<svg width="20" height="20" viewBox="0 0 20 20" fill="none" xmlns="http://www.w3.org/2000/svg">
<path d="M19.901 6.88897L18.8507 2.51756C18.6306 1.61727 17.8504 0.99707 16.9401 0.99707H3.04562C2.14533 0.99707 1.35507 1.62727 1.145 2.51756L0.0946659 6.88897C-0.145411 7.9093 0.0746601 8.94963 0.714866 9.76989C0.794892 9.87993 0.904927 9.95996 0.994956 10.06V17.0022C0.994956 18.1026 1.89525 19.0029 2.9956 19.0029H17.0001C18.1005 19.0029 19.0007 18.1026 19.0007 17.0022V10.06C19.0908 9.96996 19.2008 9.87993 19.2808 9.7799C19.921 8.95963 20.1511 7.9093 19.901 6.88897ZM16.9101 2.98771L17.9604 7.35912C18.0604 7.77925 17.9704 8.19939 17.7103 8.52949C17.5703 8.70955 17.2702 8.99965 16.77 8.99965C16.1598 8.99965 15.6297 8.50949 15.5596 7.85928L14.9795 2.99771L16.9101 2.98771ZM10.9982 2.99771H12.9588L13.499 7.51917C13.549 7.9093 13.429 8.29942 13.1689 8.58951C12.9488 8.8496 12.6287 8.99965 12.2186 8.99965C11.5484 8.99965 10.9982 8.40946 10.9982 7.68922V2.99771ZM6.48672 7.51917L7.0369 2.99771H8.99753V7.68922C8.99753 8.40946 8.44736 8.99965 7.70712 8.99965C7.36701 8.99965 7.05691 8.8496 6.81683 8.58951C6.69213 8.44279 6.59857 8.27225 6.54182 8.08825C6.48507 7.90425 6.46633 7.71064 6.48672 7.51917ZM2.03529 7.35912L3.04562 2.99771H5.01625L4.43606 7.85928C4.35604 8.50949 3.83587 8.99965 3.22567 8.99965C2.73552 8.99965 2.42542 8.70955 2.29538 8.52949C2.02529 8.20939 1.93526 7.77925 2.03529 7.35912ZM2.9956 17.0022V10.9703C3.07563 10.9803 3.14565 11.0003 3.22567 11.0003C4.09595 11.0003 4.88621 10.6402 5.4664 10.05C6.06659 10.6502 6.86685 11.0003 7.77714 11.0003C8.64742 11.0003 9.42767 10.6402 10.0079 10.07C10.598 10.6402 11.3983 11.0003 12.2986 11.0003C13.1389 11.0003 13.9391 10.6502 14.5393 10.05C15.1195 10.6402 15.9098 11.0003 16.78 11.0003C16.8601 11.0003 16.9301 10.9803 17.0101 10.9703V17.0022H2.9956Z" fill="white" fill-opacity="0.85"/>
</svg>
