<svg width="17" height="14" viewBox="0 0 17 14" fill="none" xmlns="http://www.w3.org/2000/svg">
<path d="M11.6482 12.5125V11.2875C11.6482 10.6377 11.3828 10.0146 10.9105 9.55511C10.4382 9.09565 9.7976 8.83752 9.12965 8.83752H4.09261C3.42466 8.83752 2.78407 9.09565 2.31175 9.55511C1.83944 10.0146 1.5741 10.6377 1.5741 11.2875V12.5125" stroke="#151F26" stroke-opacity="0.75" stroke-width="1.6" stroke-linecap="round" stroke-linejoin="round"/>
<path d="M6.61111 6.38755C8.00205 6.38755 9.12963 5.29065 9.12963 3.93755C9.12963 2.58445 8.00205 1.48755 6.61111 1.48755C5.22017 1.48755 4.09259 2.58445 4.09259 3.93755C4.09259 5.29065 5.22017 6.38755 6.61111 6.38755Z" stroke="#151F26" stroke-opacity="0.75" stroke-width="1.6" stroke-linecap="round" stroke-linejoin="round"/>
<path d="M15.4259 12.5125V11.2875C15.4255 10.7446 15.2397 10.2173 14.8978 9.78828C14.556 9.35925 14.0773 9.05282 13.537 8.91711" stroke="#151F26" stroke-opacity="0.75" stroke-width="1.6" stroke-linecap="round" stroke-linejoin="round"/>
<path d="M11.0186 1.56714C11.5603 1.70207 12.0405 2.00857 12.3834 2.4383C12.7263 2.86804 12.9124 3.39657 12.9124 3.94058C12.9124 4.48458 12.7263 5.01311 12.3834 5.44285C12.0405 5.87258 11.5603 6.17908 11.0186 6.31401" stroke="#151F26" stroke-opacity="0.75" stroke-width="1.6" stroke-linecap="round" stroke-linejoin="round"/>
</svg>
